<svg width="16" height="9" viewBox="0 0 16 9" fill="none" xmlns="http://www.w3.org/2000/svg">
<path d="M13.3088 1.09007L13.3087 1.0901L7.99992 5.93816L2.69152 1.0905L2.35392 1.45932L2.69108 1.0901L2.6913 1.0903C2.59668 1.00374 2.4867 0.937197 2.3687 0.892489C2.25064 0.847759 2.12544 0.825195 1.99992 0.825195C1.8744 0.825195 1.7492 0.847759 1.63114 0.892489C1.51324 0.937158 1.40335 1.00362 1.30878 1.09007C1.21402 1.17649 1.13614 1.28158 1.08201 1.40069C1.02772 1.52015 0.999023 1.65006 0.999023 1.78253C0.999023 1.91501 1.02772 2.04492 1.08201 2.16438C1.13617 2.28355 1.21411 2.38869 1.30894 2.47513C1.30904 2.47523 1.30914 2.47532 1.30925 2.47542L7.30832 7.95283C7.30843 7.95293 7.30853 7.95303 7.30864 7.95312C7.40324 8.03964 7.51318 8.10615 7.63114 8.15084C7.7492 8.19557 7.87439 8.21813 7.99992 8.21813C8.12544 8.21813 8.25064 8.19557 8.3687 8.15084C8.48666 8.10615 8.5966 8.03964 8.6912 7.95312C8.6913 7.95303 8.69141 7.95293 8.69151 7.95283L14.6911 2.47499L14.3539 2.10575L14.6911 2.47499C14.7858 2.38846 14.8637 2.28325 14.9178 2.16402C14.9719 2.04465 15.0005 1.91487 15.0005 1.78253C15.0005 1.6502 14.9719 1.52042 14.9178 1.40104C14.8637 1.28182 14.7858 1.1766 14.6911 1.09007C14.5964 1.00362 14.4864 0.937185 14.3684 0.892557C14.2504 0.847941 14.1253 0.825434 13.9999 0.825434C13.8745 0.825434 13.7494 0.847941 13.6315 0.892557C13.5135 0.937185 13.4035 1.00362 13.3088 1.09007Z" fill="#484242" stroke="#484242"/>
</svg>
