<svg width="401" height="289" viewBox="0 0 401 289" fill="none" xmlns="http://www.w3.org/2000/svg">
<ellipse cx="192.869" cy="187.08" rx="159.869" ry="44.2191" fill="#C4C4C4" fill-opacity="0.32"/>
<path d="M101.834 71.0416C101.98 70.8615 102.201 70.7593 102.433 70.7646L290.291 75.0712C290.523 75.0765 290.74 75.1891 290.878 75.3762L325.625 122.555C325.99 123.05 325.637 123.75 325.022 123.75H60.6004C59.969 123.75 59.6202 123.017 60.0183 122.527L101.834 71.0416Z" fill="#908787" stroke="#B7AFAF" stroke-width="0.5"/>
<rect x="83.3312" y="27.4614" width="219.076" height="149.165" rx="1.75" fill="white" stroke="#918787" stroke-width="0.5"/>
<line x1="94.9502" y1="94.9907" x2="290.788" y2="94.9907" stroke="#918787" stroke-width="0.5"/>
<line x1="94.9502" y1="108.697" x2="243.312" y2="108.697" stroke="#918787" stroke-width="0.3"/>
<line x1="94.9502" y1="122.302" x2="207.705" y2="122.302" stroke="#918787" stroke-width="0.3"/>
<line x1="94.9502" y1="135.908" x2="207.705" y2="135.908" stroke="#918787" stroke-width="0.3"/>
<g clip-path="url(#clip0_665:4416)">
<path d="M282.549 105.369C280.008 102.887 276.23 103.334 273.897 106.092L272.984 107.171L272.071 106.092C269.743 103.334 265.96 102.887 263.419 105.369C260.508 108.218 260.355 113.331 262.96 116.419L271.932 127.038C272.511 127.723 273.452 127.723 274.032 127.038L283.003 116.419C285.613 113.331 285.46 108.218 282.549 105.369Z" fill="#C4C4C4"/>
</g>
<path d="M59.5933 123.453C59.5933 123.038 59.9291 122.703 60.3433 122.703H132.524C132.938 122.703 133.274 123.038 133.274 123.453V140.678C133.274 141.369 133.834 141.928 134.524 141.928H251.214C251.904 141.928 252.464 141.369 252.464 140.678V123.453C252.464 123.038 252.799 122.703 253.214 122.703H325.395C325.809 122.703 326.145 123.038 326.145 123.453V209.891C326.145 210.305 325.809 210.641 325.395 210.641H60.3433C59.9291 210.641 59.5933 210.305 59.5933 209.891V123.453Z" fill="white" stroke="#B7AFAF" stroke-width="0.5"/>
<path d="M197.079 71.5425L191.103 64.6921L185.447 71.1761L183.497 68.9415L189.154 62.4574L183.689 56.1932L185.702 53.8853L191.167 60.1496L196.631 53.8853L198.581 56.1199L193.116 62.3842L199.092 69.2346L197.079 71.5425Z" fill="#908787"/>
<mask id="path-11-inside-1_665:4416" fill="white">
<path fill-rule="evenodd" clip-rule="evenodd" d="M363.584 54.4235C384.248 54.4235 401 42.2404 401 27.2117C401 12.1831 384.248 0 363.584 0C342.919 0 326.168 12.1831 326.168 27.2117C326.168 30.9327 327.195 34.4792 329.054 37.7096L318.957 51.3717C318.438 52.0743 319.006 53.0581 319.874 52.9597L343.687 50.2614C349.45 52.8982 356.272 54.4235 363.584 54.4235Z"/>
</mask>
<path fill-rule="evenodd" clip-rule="evenodd" d="M363.584 54.4235C384.248 54.4235 401 42.2404 401 27.2117C401 12.1831 384.248 0 363.584 0C342.919 0 326.168 12.1831 326.168 27.2117C326.168 30.9327 327.195 34.4792 329.054 37.7096L318.957 51.3717C318.438 52.0743 319.006 53.0581 319.874 52.9597L343.687 50.2614C349.45 52.8982 356.272 54.4235 363.584 54.4235Z" fill="white"/>
<path d="M329.054 37.7096L329.456 38.0068L329.65 37.7437L329.487 37.4602L329.054 37.7096ZM318.957 51.3717L318.555 51.0746H318.555L318.957 51.3717ZM319.874 52.9597L319.818 52.4629H319.818L319.874 52.9597ZM343.687 50.2614L343.895 49.8067L343.769 49.749L343.631 49.7646L343.687 50.2614ZM400.5 27.2117C400.5 34.5267 396.424 41.1928 389.747 46.049C383.07 50.9047 373.822 53.9235 363.584 53.9235V54.9235C374.01 54.9235 383.47 51.8506 390.335 46.8577C397.2 41.8651 401.5 34.9254 401.5 27.2117H400.5ZM363.584 0.5C373.822 0.5 383.07 3.51872 389.747 8.3745C396.424 13.2306 400.5 19.8968 400.5 27.2117H401.5C401.5 19.498 397.2 12.5583 390.335 7.56576C383.47 2.57283 374.01 -0.5 363.584 -0.5V0.5ZM326.668 27.2117C326.668 19.8968 330.743 13.2306 337.421 8.3745C344.097 3.51872 353.346 0.5 363.584 0.5V-0.5C353.157 -0.5 343.698 2.57283 336.832 7.56576C329.968 12.5583 325.668 19.498 325.668 27.2117H326.668ZM329.487 37.4602C327.668 34.2992 326.668 30.838 326.668 27.2117H325.668C325.668 31.0274 326.721 34.6592 328.62 37.959L329.487 37.4602ZM319.359 51.6689L329.456 38.0068L328.651 37.4124L318.555 51.0746L319.359 51.6689ZM319.818 52.4629C319.384 52.5121 319.1 52.0202 319.359 51.6689L318.555 51.0746C317.776 52.1284 318.628 53.6041 319.93 53.4565L319.818 52.4629ZM343.631 49.7646L319.818 52.4629L319.93 53.4565L343.744 50.7582L343.631 49.7646ZM363.584 53.9235C356.341 53.9235 349.59 52.4123 343.895 49.8067L343.479 50.7161C349.311 53.3841 356.204 54.9235 363.584 54.9235V53.9235Z" fill="#918787" mask="url(#path-11-inside-1_665:4416)"/>
<g clip-path="url(#clip1_665:4416)">
<path d="M363.475 13.606C359.233 13.606 356.485 15.3441 354.328 18.4438C353.936 19.0061 354.057 19.7771 354.603 20.191L356.896 21.9294C357.447 22.3474 358.231 22.2497 358.663 21.7089C359.994 20.0411 360.982 19.0808 363.061 19.0808C364.696 19.0808 366.719 20.1331 366.719 21.7186C366.719 22.9172 365.729 23.5328 364.115 24.4379C362.232 25.4934 359.741 26.807 359.741 30.0931V30.6133C359.741 31.3178 360.312 31.8888 361.016 31.8888H364.868C365.572 31.8888 366.144 31.3178 366.144 30.6133V30.3065C366.144 28.0285 372.801 27.9337 372.801 21.7695C372.801 17.1273 367.986 13.606 363.475 13.606ZM362.942 33.4545C360.912 33.4545 359.261 35.1061 359.261 37.1361C359.261 39.1661 360.912 40.8177 362.942 40.8177C364.972 40.8177 366.624 39.1661 366.624 37.1361C366.624 35.106 364.972 33.4545 362.942 33.4545Z" fill="#908787"/>
</g>
<path d="M15.9119 265.545H14.3438V280.179H14.2074L3.8608 265.545H2.31818V283H3.91193V268.384H4.0483L14.3608 283H15.9119V265.545ZM25.3253 283.273C28.7173 283.273 31.0866 280.503 31.0866 276.514C31.0866 272.5 28.7173 269.73 25.3253 269.73C21.9332 269.73 19.5639 272.5 19.5639 276.514C19.5639 280.503 21.9332 283.273 25.3253 283.273ZM25.3253 281.884C22.6065 281.884 21.0895 279.446 21.0895 276.514C21.0895 273.582 22.6065 271.111 25.3253 271.111C28.044 271.111 29.5611 273.582 29.5611 276.514C29.5611 279.446 28.044 281.884 25.3253 281.884ZM42.6839 274.818C42.6839 272.534 44.218 271.128 46.3146 271.128C48.343 271.128 49.6385 272.457 49.6385 274.614V283H51.1641V274.52C51.1641 271.401 49.3572 269.739 46.6982 269.739C44.7209 269.739 43.4339 270.608 42.8203 271.963H42.6839V265.545H41.1669V283H42.6839V274.818ZM60.4517 283.273C63.0767 283.273 64.8409 281.849 65.4375 280.205L63.9972 279.736C63.4943 280.912 62.3097 281.884 60.4517 281.884C57.7756 281.884 56.0795 279.932 56.0114 276.906H65.7614V276.156C65.7614 271.784 63.0597 269.73 60.2216 269.73C56.8295 269.73 54.4858 272.568 54.4858 276.531C54.4858 280.503 56.7869 283.273 60.4517 283.273ZM56.0199 275.568C56.1818 273.131 57.8267 271.111 60.2216 271.111C62.5653 271.111 64.2102 273.045 64.2102 275.568H56.0199ZM69.1044 283H70.6214V274.614C70.6214 272.577 71.9766 271.128 73.7919 271.128C75.5817 271.128 76.6214 272.321 76.6214 274.094V283H78.1726V274.384C78.1726 272.5 79.2976 271.128 81.2919 271.128C83.022 271.128 84.1726 272.168 84.1726 274.23V283H85.6896V274.23C85.6896 271.298 84.1811 269.739 81.7521 269.739C79.843 269.739 78.4624 270.668 77.8743 272.116H77.7635C77.1839 270.634 76.0334 269.739 74.2266 269.739C72.5135 269.739 71.2351 270.565 70.7152 271.92H70.5788V269.909H69.1044V283ZM94.794 283.273C98.1861 283.273 100.555 280.503 100.555 276.514C100.555 272.5 98.1861 269.73 94.794 269.73C91.402 269.73 89.0327 272.5 89.0327 276.514C89.0327 280.503 91.402 283.273 94.794 283.273ZM94.794 281.884C92.0753 281.884 90.5582 279.446 90.5582 276.514C90.5582 273.582 92.0753 271.111 94.794 271.111C97.5128 271.111 99.0298 273.582 99.0298 276.514C99.0298 279.446 97.5128 281.884 94.794 281.884ZM112.681 272.781C112.042 270.889 110.644 269.73 108.249 269.73C105.607 269.73 103.69 271.239 103.69 273.395C103.69 275.151 104.755 276.344 107.031 276.889L109.17 277.401C110.61 277.741 111.3 278.483 111.3 279.531C111.3 280.895 109.996 281.909 107.985 281.909C106.195 281.909 105.079 281.099 104.712 279.548L103.255 279.906C103.715 282.088 105.445 283.273 108.011 283.273C110.891 283.273 112.869 281.688 112.869 279.463C112.869 277.716 111.769 276.548 109.579 276.011L107.602 275.526C105.974 275.116 105.215 274.46 105.215 273.327C105.215 271.997 106.485 271.068 108.249 271.068C110.013 271.068 110.883 271.997 111.292 273.173L112.681 272.781ZM128.233 283.273C130.858 283.273 132.622 281.849 133.219 280.205L131.778 279.736C131.276 280.912 130.091 281.884 128.233 281.884C125.557 281.884 123.861 279.932 123.793 276.906H133.543V276.156C133.543 271.784 130.841 269.73 128.003 269.73C124.611 269.73 122.267 272.568 122.267 276.531C122.267 280.503 124.568 283.273 128.233 283.273ZM123.801 275.568C123.963 273.131 125.608 271.111 128.003 271.111C130.347 271.111 131.991 273.045 131.991 275.568H123.801ZM138.403 274.818C138.403 272.534 139.903 271.128 141.965 271.128C143.977 271.128 145.272 272.474 145.272 274.614V283H146.789V274.52C146.789 271.418 144.991 269.739 142.349 269.739C140.431 269.739 139.11 270.625 138.496 271.963H138.36V269.909H136.886V283H138.403V274.818ZM155.898 283.273C158.625 283.273 160.543 281.551 160.892 279.182H159.358C159.009 280.852 157.636 281.884 155.898 281.884C153.332 281.884 151.636 279.651 151.636 276.463C151.636 273.293 153.384 271.111 155.898 271.111C157.764 271.111 159.026 272.312 159.349 273.795H160.884C160.526 271.366 158.497 269.73 155.872 269.73C152.446 269.73 150.111 272.577 150.111 276.514C150.111 280.418 152.378 283.273 155.898 283.273ZM169.232 283.273C172.624 283.273 174.993 280.503 174.993 276.514C174.993 272.5 172.624 269.73 169.232 269.73C165.839 269.73 163.47 272.5 163.47 276.514C163.47 280.503 165.839 283.273 169.232 283.273ZM169.232 281.884C166.513 281.884 164.996 279.446 164.996 276.514C164.996 273.582 166.513 271.111 169.232 271.111C171.95 271.111 173.467 273.582 173.467 276.514C173.467 279.446 171.95 281.884 169.232 281.884ZM179.84 274.818C179.84 272.534 181.34 271.128 183.403 271.128C185.414 271.128 186.71 272.474 186.71 274.614V283H188.227V274.52C188.227 271.418 186.428 269.739 183.786 269.739C181.869 269.739 180.548 270.625 179.934 271.963H179.798V269.909H178.323V283H179.84V274.818ZM197.378 269.909H194.608V266.773H193.082V269.909H191.131V271.23H193.082V279.94C193.082 282.08 194.77 283.196 196.449 283.196C197.08 283.196 197.506 283.077 197.795 282.966L197.472 281.594C197.259 281.653 196.986 281.713 196.585 281.713C195.554 281.713 194.608 281.227 194.608 279.582V271.23H197.378V269.909ZM200.823 283H202.34V274.545C202.34 272.602 203.832 271.196 205.877 271.196C206.278 271.196 206.653 271.264 206.789 271.281V269.739C206.585 269.73 206.235 269.713 205.988 269.713C204.343 269.713 202.937 270.599 202.408 271.92H202.298V269.909H200.823V283ZM213.034 283.298C215.216 283.298 216.545 282.088 217.091 280.929H217.185V283H218.702V274.111C218.702 270.599 216.06 269.73 214.057 269.73C212.054 269.73 209.991 270.523 209.105 272.662L210.545 273.182C211.023 272.057 212.207 271.094 214.099 271.094C216.085 271.094 217.185 272.185 217.185 273.974V274.281C217.185 275.27 215.957 275.287 213.759 275.56C210.801 275.926 208.73 276.753 208.73 279.344C208.73 281.866 210.656 283.298 213.034 283.298ZM213.239 281.909C211.526 281.909 210.247 280.997 210.247 279.412C210.247 277.827 211.543 277.162 213.759 276.889C214.832 276.761 216.741 276.523 217.185 276.088V277.98C217.185 280.128 215.659 281.909 213.239 281.909ZM227.45 283.273C229.828 283.273 230.936 281.764 231.473 280.571H231.652V283H233.135V265.545H231.609V272.406H231.473C230.953 271.23 229.871 269.73 227.476 269.73C224.246 269.73 222.064 272.457 222.064 276.489C222.064 280.554 224.237 283.273 227.45 283.273ZM227.629 281.884C225.021 281.884 223.589 279.514 223.589 276.463C223.589 273.446 225.004 271.111 227.629 271.111C230.186 271.111 231.635 273.327 231.635 276.463C231.635 279.625 230.169 281.884 227.629 281.884ZM242.544 283.273C245.936 283.273 248.305 280.503 248.305 276.514C248.305 272.5 245.936 269.73 242.544 269.73C239.152 269.73 236.783 272.5 236.783 276.514C236.783 280.503 239.152 283.273 242.544 283.273ZM242.544 281.884C239.825 281.884 238.308 279.446 238.308 276.514C238.308 273.582 239.825 271.111 242.544 271.111C245.263 271.111 246.78 273.582 246.78 276.514C246.78 279.446 245.263 281.884 242.544 281.884ZM263.099 283.273C265.477 283.273 266.585 281.764 267.121 280.571H267.3V283H268.783V265.545H267.258V272.406H267.121C266.602 271.23 265.519 269.73 263.124 269.73C259.894 269.73 257.712 272.457 257.712 276.489C257.712 280.554 259.886 283.273 263.099 283.273ZM263.278 281.884C260.67 281.884 259.238 279.514 259.238 276.463C259.238 273.446 260.653 271.111 263.278 271.111C265.835 271.111 267.283 273.327 267.283 276.463C267.283 279.625 265.817 281.884 263.278 281.884ZM278.192 283.273C281.585 283.273 283.954 280.503 283.954 276.514C283.954 272.5 281.585 269.73 278.192 269.73C274.8 269.73 272.431 272.5 272.431 276.514C272.431 280.503 274.8 283.273 278.192 283.273ZM278.192 281.884C275.474 281.884 273.957 279.446 273.957 276.514C273.957 273.582 275.474 271.111 278.192 271.111C280.911 271.111 282.428 273.582 282.428 276.514C282.428 279.446 280.911 281.884 278.192 281.884ZM288.801 274.818C288.801 272.534 290.301 271.128 292.364 271.128C294.375 271.128 295.67 272.474 295.67 274.614V283H297.188V274.52C297.188 271.418 295.389 269.739 292.747 269.739C290.83 269.739 289.509 270.625 288.895 271.963H288.759V269.909H287.284V283H288.801V274.818ZM304.839 283.298C307.021 283.298 308.35 282.088 308.896 280.929H308.989V283H310.506V274.111C310.506 270.599 307.864 269.73 305.862 269.73C303.859 269.73 301.796 270.523 300.91 272.662L302.35 273.182C302.827 272.057 304.012 271.094 305.904 271.094C307.89 271.094 308.989 272.185 308.989 273.974V274.281C308.989 275.27 307.762 275.287 305.563 275.56C302.606 275.926 300.535 276.753 300.535 279.344C300.535 281.866 302.461 283.298 304.839 283.298ZM305.043 281.909C303.33 281.909 302.052 280.997 302.052 279.412C302.052 277.827 303.347 277.162 305.563 276.889C306.637 276.761 308.546 276.523 308.989 276.088V277.98C308.989 280.128 307.464 281.909 305.043 281.909ZM319.656 283.273C322.383 283.273 324.3 281.551 324.65 279.182H323.116C322.766 280.852 321.394 281.884 319.656 281.884C317.09 281.884 315.394 279.651 315.394 276.463C315.394 273.293 317.141 271.111 319.656 271.111C321.522 271.111 322.783 272.312 323.107 273.795H324.641C324.283 271.366 322.255 269.73 319.63 269.73C316.204 269.73 313.869 272.577 313.869 276.514C313.869 280.418 316.136 283.273 319.656 283.273ZM327.918 283H329.444V269.909H327.918V283ZM328.694 267.659C329.316 267.659 329.836 267.165 329.836 266.568C329.836 265.972 329.316 265.477 328.694 265.477C328.072 265.477 327.56 265.972 327.56 266.568C327.56 267.165 328.072 267.659 328.694 267.659ZM338.544 283.273C341.936 283.273 344.305 280.503 344.305 276.514C344.305 272.5 341.936 269.73 338.544 269.73C335.152 269.73 332.783 272.5 332.783 276.514C332.783 280.503 335.152 283.273 338.544 283.273ZM338.544 281.884C335.825 281.884 334.308 279.446 334.308 276.514C334.308 273.582 335.825 271.111 338.544 271.111C341.263 271.111 342.78 273.582 342.78 276.514C342.78 279.446 341.263 281.884 338.544 281.884ZM349.153 274.818C349.153 272.534 350.653 271.128 352.715 271.128C354.727 271.128 356.022 272.474 356.022 274.614V283H357.539V274.52C357.539 271.418 355.741 269.739 353.099 269.739C351.181 269.739 349.86 270.625 349.246 271.963H349.11V269.909H347.636V283H349.153V274.818ZM366.827 283.273C369.452 283.273 371.216 281.849 371.812 280.205L370.372 279.736C369.869 280.912 368.685 281.884 366.827 281.884C364.151 281.884 362.455 279.932 362.386 276.906H372.136V276.156C372.136 271.784 369.435 269.73 366.597 269.73C363.205 269.73 360.861 272.568 360.861 276.531C360.861 280.503 363.162 283.273 366.827 283.273ZM362.395 275.568C362.557 273.131 364.202 271.111 366.597 271.111C368.94 271.111 370.585 273.045 370.585 275.568H362.395ZM384.275 272.781C383.636 270.889 382.238 269.73 379.843 269.73C377.201 269.73 375.283 271.239 375.283 273.395C375.283 275.151 376.349 276.344 378.624 276.889L380.763 277.401C382.204 277.741 382.894 278.483 382.894 279.531C382.894 280.895 381.59 281.909 379.579 281.909C377.789 281.909 376.673 281.099 376.306 279.548L374.849 279.906C375.309 282.088 377.039 283.273 379.604 283.273C382.485 283.273 384.462 281.688 384.462 279.463C384.462 277.716 383.363 276.548 381.173 276.011L379.195 275.526C377.567 275.116 376.809 274.46 376.809 273.327C376.809 271.997 378.079 271.068 379.843 271.068C381.607 271.068 382.477 271.997 382.886 273.173L384.275 272.781Z" fill="#969696"/>
<defs>
<clipPath id="clip0_665:4416">
<rect width="23.7379" height="27.2117" fill="white" transform="translate(261.115 102.043)"/>
</clipPath>
<clipPath id="clip1_665:4416">
<rect width="20.4088" height="27.2117" fill="white" transform="translate(352.738 13.606)"/>
</clipPath>
</defs>
</svg>
