<svg width="416" height="231" viewBox="0 0 416 231" fill="none" xmlns="http://www.w3.org/2000/svg">
<g clip-path="url(#clip0_665:4418)">
<ellipse cx="207.869" cy="187.08" rx="159.869" ry="44.2191" fill="#C4C4C4" fill-opacity="0.32"/>
<path d="M116.64 70.8842C116.835 70.6442 117.13 70.5078 117.439 70.5149L305.297 74.8215C305.606 74.8286 305.895 74.9788 306.079 75.2282L340.827 122.407C341.313 123.068 340.842 124 340.022 124H75.6005C74.7586 124 74.2935 123.023 74.8243 122.37L116.64 70.8842Z" fill="#908787"/>
<path fill-rule="evenodd" clip-rule="evenodd" d="M305.285 75.3214L117.427 71.0148C117.273 71.0112 117.125 71.0794 117.028 71.1994L75.2124 122.685C74.947 123.012 75.1796 123.5 75.6005 123.5H340.022C340.432 123.5 340.667 123.034 340.424 122.704L305.676 75.5247C305.585 75.4 305.44 75.3249 305.285 75.3214ZM117.439 70.5149C117.13 70.5078 116.835 70.6442 116.64 70.8842L74.8243 122.37C74.2935 123.023 74.7586 124 75.6005 124H340.022C340.842 124 341.313 123.068 340.827 122.407L306.079 75.2282C305.895 74.9788 305.606 74.8286 305.297 74.8215L117.439 70.5149Z" fill="#B7AFAF"/>
<path d="M98 67C98 65.8954 98.8954 65 100 65H316C317.105 65 318 65.8954 318 67V175C318 176.105 317.105 177 316 177H100C98.8954 177 98 176.105 98 175V67Z" fill="white"/>
<path fill-rule="evenodd" clip-rule="evenodd" d="M316 65.5H100C99.1716 65.5 98.5 66.1716 98.5 67V175C98.5 175.828 99.1716 176.5 100 176.5H316C316.828 176.5 317.5 175.828 317.5 175V67C317.5 66.1716 316.828 65.5 316 65.5ZM100 65C98.8954 65 98 65.8954 98 67V175C98 176.105 98.8954 177 100 177H316C317.105 177 318 176.105 318 175V67C318 65.8954 317.105 65 316 65H100Z" fill="#918787"/>
<path fill-rule="evenodd" clip-rule="evenodd" d="M214 83H136V82.5H214V83Z" fill="#918787"/>
<path fill-rule="evenodd" clip-rule="evenodd" d="M301 83H223V82.5H301V83Z" fill="#918787"/>
<path fill-rule="evenodd" clip-rule="evenodd" d="M284.362 95.0002H136V94.7002H284.362V95.0002Z" fill="#918787"/>
<path fill-rule="evenodd" clip-rule="evenodd" d="M284.362 108H136V107.7H284.362V108Z" fill="#918787"/>
<path fill-rule="evenodd" clip-rule="evenodd" d="M284 119H136V118.7H284V119Z" fill="#918787"/>
<path d="M132.5 73C132.5 84.8436 122.234 94.5 109.5 94.5C96.7659 94.5 86.5 84.8436 86.5 73C86.5 61.1564 96.7659 51.5 109.5 51.5C122.234 51.5 132.5 61.1564 132.5 73Z" fill="white" stroke="#C4C4C4"/>
<path d="M112.276 76.6507L109.366 73.3143L106.611 76.4723L105.661 75.3839L108.416 72.226L105.755 69.175L106.735 68.051L109.397 71.1019L112.058 68.051L113.008 69.1393L110.346 72.1903L113.257 75.5267L112.276 76.6507Z" fill="#908787"/>
<path d="M74.3433 123.453C74.3433 122.9 74.791 122.453 75.3433 122.453H147.524C148.076 122.453 148.524 122.9 148.524 123.453V140.678C148.524 141.231 148.972 141.678 149.524 141.678H266.214C266.766 141.678 267.214 141.231 267.214 140.678V123.453C267.214 122.9 267.661 122.453 268.214 122.453H340.395C340.947 122.453 341.395 122.9 341.395 123.453V209.891C341.395 210.443 340.947 210.891 340.395 210.891H75.3433C74.791 210.891 74.3433 210.443 74.3433 209.891V123.453Z" fill="white"/>
<path fill-rule="evenodd" clip-rule="evenodd" d="M340.895 209.891V123.453C340.895 123.176 340.671 122.953 340.395 122.953H268.214C267.938 122.953 267.714 123.176 267.714 123.453V140.678C267.714 141.507 267.042 142.178 266.214 142.178H149.524C148.696 142.178 148.024 141.507 148.024 140.678V123.453C148.024 123.176 147.8 122.953 147.524 122.953H75.3433C75.0671 122.953 74.8433 123.176 74.8433 123.453V209.891C74.8433 210.167 75.0671 210.391 75.3433 210.391H340.395C340.671 210.391 340.895 210.167 340.895 209.891ZM75.3433 122.453C74.791 122.453 74.3433 122.9 74.3433 123.453V209.891C74.3433 210.443 74.791 210.891 75.3433 210.891H340.395C340.947 210.891 341.395 210.443 341.395 209.891V123.453C341.395 122.9 340.947 122.453 340.395 122.453H268.214C267.661 122.453 267.214 122.9 267.214 123.453V140.678C267.214 141.231 266.766 141.678 266.214 141.678H149.524C148.972 141.678 148.524 141.231 148.524 140.678V123.453C148.524 122.9 148.076 122.453 147.524 122.453H75.3433Z" fill="#B7AFAF"/>
<mask id="path-15-inside-1_665:4418" fill="white">
<path fill-rule="evenodd" clip-rule="evenodd" d="M378.584 54.4235C399.248 54.4235 416 42.2404 416 27.2117C416 12.1831 399.248 0 378.584 0C357.919 0 341.168 12.1831 341.168 27.2117C341.168 30.9327 342.195 34.4792 344.054 37.7096L333.957 51.3717C333.438 52.0743 334.006 53.0581 334.874 52.9597L358.687 50.2614C364.451 52.8982 371.272 54.4235 378.584 54.4235Z"/>
</mask>
<path fill-rule="evenodd" clip-rule="evenodd" d="M378.584 54.4235C399.248 54.4235 416 42.2404 416 27.2117C416 12.1831 399.248 0 378.584 0C357.919 0 341.168 12.1831 341.168 27.2117C341.168 30.9327 342.195 34.4792 344.054 37.7096L333.957 51.3717C333.438 52.0743 334.006 53.0581 334.874 52.9597L358.687 50.2614C364.451 52.8982 371.272 54.4235 378.584 54.4235Z" fill="white"/>
<path d="M344.054 37.7096L344.456 38.0068L344.65 37.7437L344.487 37.4602L344.054 37.7096ZM333.957 51.3717L333.555 51.0746H333.555L333.957 51.3717ZM334.874 52.9597L334.818 52.4629H334.818L334.874 52.9597ZM358.687 50.2614L358.895 49.8067L358.769 49.749L358.631 49.7646L358.687 50.2614ZM415.5 27.2117C415.5 34.5267 411.424 41.1928 404.747 46.049C398.07 50.9047 388.822 53.9235 378.584 53.9235V54.9235C389.01 54.9235 398.47 51.8506 405.335 46.8577C412.2 41.8651 416.5 34.9254 416.5 27.2117H415.5ZM378.584 0.5C388.822 0.5 398.07 3.51872 404.747 8.3745C411.424 13.2306 415.5 19.8968 415.5 27.2117H416.5C416.5 19.498 412.2 12.5583 405.335 7.56576C398.47 2.57283 389.01 -0.5 378.584 -0.5V0.5ZM341.668 27.2117C341.668 19.8968 345.744 13.2306 352.421 8.3745C359.097 3.51872 368.346 0.5 378.584 0.5V-0.5C368.157 -0.5 358.698 2.57283 351.833 7.56576C344.968 12.5583 340.668 19.498 340.668 27.2117H341.668ZM344.487 37.4602C342.668 34.2992 341.668 30.838 341.668 27.2117H340.668C340.668 31.0274 341.721 34.6592 343.62 37.959L344.487 37.4602ZM334.359 51.6689L344.456 38.0068L343.651 37.4124L333.555 51.0746L334.359 51.6689ZM334.818 52.4629C334.384 52.5121 334.1 52.0202 334.359 51.6689L333.555 51.0746C332.776 52.1284 333.628 53.6041 334.93 53.4565L334.818 52.4629ZM358.631 49.7646L334.818 52.4629L334.93 53.4565L358.744 50.7582L358.631 49.7646ZM378.584 53.9235C371.341 53.9235 364.59 52.4123 358.895 49.8067L358.479 50.7161C364.311 53.3841 371.204 54.9235 378.584 54.9235V53.9235Z" fill="#918787" mask="url(#path-15-inside-1_665:4418)"/>
<g clip-path="url(#clip1_665:4418)">
<path d="M378.475 13.606C374.232 13.606 371.485 15.3441 369.328 18.4438C368.936 19.0061 369.057 19.7771 369.603 20.191L371.895 21.9294C372.447 22.3474 373.231 22.2497 373.663 21.7089C374.994 20.0411 375.982 19.0808 378.061 19.0808C379.696 19.0808 381.719 20.1331 381.719 21.7186C381.719 22.9172 380.729 23.5328 379.115 24.4379C377.232 25.4934 374.741 26.807 374.741 30.0931V30.6133C374.741 31.3178 375.312 31.8888 376.016 31.8888H379.868C380.572 31.8888 381.143 31.3178 381.143 30.6133V30.3065C381.143 28.0285 387.801 27.9337 387.801 21.7695C387.801 17.1273 382.986 13.606 378.475 13.606ZM377.942 33.4545C375.912 33.4545 374.26 35.1061 374.26 37.1361C374.26 39.1661 375.912 40.8177 377.942 40.8177C379.972 40.8177 381.624 39.1661 381.624 37.1361C381.624 35.106 379.972 33.4545 377.942 33.4545Z" fill="#908787"/>
</g>
</g>
<defs>
<clipPath id="clip0_665:4418">
<rect width="416" height="231" fill="white"/>
</clipPath>
<clipPath id="clip1_665:4418">
<rect width="20.4088" height="27.2117" fill="white" transform="translate(367.738 13.606)"/>
</clipPath>
</defs>
</svg>
