<svg width="401" height="289" viewBox="0 0 401 289" fill="none" xmlns="http://www.w3.org/2000/svg">
<ellipse cx="192.869" cy="187.08" rx="159.869" ry="44.2191" fill="#C4C4C4" fill-opacity="0.32"/>
<path d="M101.64 70.8842C101.835 70.6442 102.13 70.5078 102.439 70.5149L290.297 74.8215C290.606 74.8286 290.895 74.9788 291.079 75.2282L325.827 122.407C326.313 123.068 325.842 124 325.022 124H60.6005C59.7586 124 59.2935 123.023 59.8243 122.37L101.64 70.8842Z" fill="#908787"/>
<path fill-rule="evenodd" clip-rule="evenodd" d="M290.285 75.3214L102.427 71.0148C102.273 71.0112 102.125 71.0794 102.028 71.1994L60.2124 122.685C59.947 123.012 60.1796 123.5 60.6005 123.5H325.022C325.432 123.5 325.667 123.034 325.424 122.704L290.676 75.5247C290.585 75.4 290.44 75.3249 290.285 75.3214ZM102.439 70.5149C102.13 70.5078 101.835 70.6442 101.64 70.8842L59.8243 122.37C59.2935 123.023 59.7586 124 60.6005 124H325.022C325.842 124 326.313 123.068 325.827 122.407L291.079 75.2282C290.895 74.9788 290.606 74.8286 290.297 74.8215L102.439 70.5149Z" fill="#B7AFAF"/>
<path d="M83 67C83 65.8954 83.8954 65 85 65H301C302.105 65 303 65.8954 303 67V175C303 176.105 302.105 177 301 177H85C83.8954 177 83 176.105 83 175V67Z" fill="white"/>
<path fill-rule="evenodd" clip-rule="evenodd" d="M301 65.5H85C84.1716 65.5 83.5 66.1716 83.5 67V175C83.5 175.828 84.1716 176.5 85 176.5H301C301.828 176.5 302.5 175.828 302.5 175V67C302.5 66.1716 301.828 65.5 301 65.5ZM85 65C83.8954 65 83 65.8954 83 67V175C83 176.105 83.8954 177 85 177H301C302.105 177 303 176.105 303 175V67C303 65.8954 302.105 65 301 65H85Z" fill="#918787"/>
<path fill-rule="evenodd" clip-rule="evenodd" d="M199 83H121V82.5H199V83Z" fill="#918787"/>
<path fill-rule="evenodd" clip-rule="evenodd" d="M286 83H208V82.5H286V83Z" fill="#918787"/>
<path fill-rule="evenodd" clip-rule="evenodd" d="M269.362 95.0002H121V94.7002H269.362V95.0002Z" fill="#918787"/>
<path fill-rule="evenodd" clip-rule="evenodd" d="M269.362 108H121V107.7H269.362V108Z" fill="#918787"/>
<path fill-rule="evenodd" clip-rule="evenodd" d="M269 119H121V118.7H269V119Z" fill="#918787"/>
<path d="M117.5 73C117.5 84.8436 107.234 94.5 94.5 94.5C81.7659 94.5 71.5 84.8436 71.5 73C71.5 61.1564 81.7659 51.5 94.5 51.5C107.234 51.5 117.5 61.1564 117.5 73Z" fill="white" stroke="#C4C4C4"/>
<path d="M97.2762 76.6507L94.3657 73.3143L91.6109 76.4723L90.6615 75.3839L93.4163 72.226L90.7548 69.175L91.7354 68.051L94.3968 71.1019L97.0583 68.051L98.0077 69.1393L95.3462 72.1903L98.2567 75.5267L97.2762 76.6507Z" fill="#908787"/>
<path d="M59.3433 123.453C59.3433 122.9 59.791 122.453 60.3433 122.453H132.524C133.076 122.453 133.524 122.9 133.524 123.453V140.678C133.524 141.231 133.972 141.678 134.524 141.678H251.214C251.766 141.678 252.214 141.231 252.214 140.678V123.453C252.214 122.9 252.661 122.453 253.214 122.453H325.395C325.947 122.453 326.395 122.9 326.395 123.453V209.891C326.395 210.443 325.947 210.891 325.395 210.891H60.3433C59.791 210.891 59.3433 210.443 59.3433 209.891V123.453Z" fill="white"/>
<path fill-rule="evenodd" clip-rule="evenodd" d="M325.895 209.891V123.453C325.895 123.176 325.671 122.953 325.395 122.953H253.214C252.938 122.953 252.714 123.176 252.714 123.453V140.678C252.714 141.507 252.042 142.178 251.214 142.178H134.524C133.696 142.178 133.024 141.507 133.024 140.678V123.453C133.024 123.176 132.8 122.953 132.524 122.953H60.3433C60.0671 122.953 59.8433 123.176 59.8433 123.453V209.891C59.8433 210.167 60.0671 210.391 60.3433 210.391H325.395C325.671 210.391 325.895 210.167 325.895 209.891ZM60.3433 122.453C59.791 122.453 59.3433 122.9 59.3433 123.453V209.891C59.3433 210.443 59.791 210.891 60.3433 210.891H325.395C325.947 210.891 326.395 210.443 326.395 209.891V123.453C326.395 122.9 325.947 122.453 325.395 122.453H253.214C252.661 122.453 252.214 122.9 252.214 123.453V140.678C252.214 141.231 251.766 141.678 251.214 141.678H134.524C133.972 141.678 133.524 141.231 133.524 140.678V123.453C133.524 122.9 133.076 122.453 132.524 122.453H60.3433Z" fill="#B7AFAF"/>
<mask id="path-15-inside-1_665:4417" fill="white">
<path fill-rule="evenodd" clip-rule="evenodd" d="M363.584 54.4235C384.248 54.4235 401 42.2404 401 27.2117C401 12.1831 384.248 0 363.584 0C342.919 0 326.168 12.1831 326.168 27.2117C326.168 30.9327 327.195 34.4792 329.054 37.7096L318.957 51.3717C318.438 52.0743 319.006 53.0581 319.874 52.9597L343.687 50.2614C349.451 52.8982 356.272 54.4235 363.584 54.4235Z"/>
</mask>
<path fill-rule="evenodd" clip-rule="evenodd" d="M363.584 54.4235C384.248 54.4235 401 42.2404 401 27.2117C401 12.1831 384.248 0 363.584 0C342.919 0 326.168 12.1831 326.168 27.2117C326.168 30.9327 327.195 34.4792 329.054 37.7096L318.957 51.3717C318.438 52.0743 319.006 53.0581 319.874 52.9597L343.687 50.2614C349.451 52.8982 356.272 54.4235 363.584 54.4235Z" fill="white"/>
<path d="M329.054 37.7096L329.456 38.0068L329.65 37.7437L329.487 37.4602L329.054 37.7096ZM318.957 51.3717L318.555 51.0746H318.555L318.957 51.3717ZM319.874 52.9597L319.818 52.4629H319.818L319.874 52.9597ZM343.687 50.2614L343.895 49.8067L343.769 49.749L343.631 49.7646L343.687 50.2614ZM400.5 27.2117C400.5 34.5267 396.424 41.1928 389.747 46.049C383.07 50.9047 373.822 53.9235 363.584 53.9235V54.9235C374.01 54.9235 383.47 51.8506 390.335 46.8577C397.2 41.8651 401.5 34.9254 401.5 27.2117H400.5ZM363.584 0.5C373.822 0.5 383.07 3.51872 389.747 8.3745C396.424 13.2306 400.5 19.8968 400.5 27.2117H401.5C401.5 19.498 397.2 12.5583 390.335 7.56576C383.47 2.57283 374.01 -0.5 363.584 -0.5V0.5ZM326.668 27.2117C326.668 19.8968 330.744 13.2306 337.421 8.3745C344.097 3.51872 353.346 0.5 363.584 0.5V-0.5C353.157 -0.5 343.698 2.57283 336.833 7.56576C329.968 12.5583 325.668 19.498 325.668 27.2117H326.668ZM329.487 37.4602C327.668 34.2992 326.668 30.838 326.668 27.2117H325.668C325.668 31.0274 326.721 34.6592 328.62 37.959L329.487 37.4602ZM319.359 51.6689L329.456 38.0068L328.651 37.4124L318.555 51.0746L319.359 51.6689ZM319.818 52.4629C319.384 52.5121 319.1 52.0202 319.359 51.6689L318.555 51.0746C317.776 52.1284 318.628 53.6041 319.93 53.4565L319.818 52.4629ZM343.631 49.7646L319.818 52.4629L319.93 53.4565L343.744 50.7582L343.631 49.7646ZM363.584 53.9235C356.341 53.9235 349.59 52.4123 343.895 49.8067L343.479 50.7161C349.311 53.3841 356.204 54.9235 363.584 54.9235V53.9235Z" fill="#918787" mask="url(#path-15-inside-1_665:4417)"/>
<g clip-path="url(#clip0_665:4417)">
<path d="M363.475 13.606C359.232 13.606 356.485 15.3441 354.328 18.4438C353.936 19.0061 354.057 19.7771 354.603 20.191L356.895 21.9294C357.447 22.3474 358.231 22.2497 358.663 21.7089C359.994 20.0411 360.982 19.0808 363.061 19.0808C364.696 19.0808 366.719 20.1331 366.719 21.7186C366.719 22.9172 365.729 23.5328 364.115 24.4379C362.232 25.4934 359.741 26.807 359.741 30.0931V30.6133C359.741 31.3178 360.312 31.8888 361.016 31.8888H364.868C365.572 31.8888 366.143 31.3178 366.143 30.6133V30.3065C366.143 28.0285 372.801 27.9337 372.801 21.7695C372.801 17.1273 367.986 13.606 363.475 13.606ZM362.942 33.4545C360.912 33.4545 359.26 35.1061 359.26 37.1361C359.26 39.1661 360.912 40.8177 362.942 40.8177C364.972 40.8177 366.624 39.1661 366.624 37.1361C366.624 35.106 364.972 33.4545 362.942 33.4545Z" fill="#908787"/>
</g>
<path d="M15.9119 265.545H14.3438V280.179H14.2074L3.8608 265.545H2.31818V283H3.91193V268.384H4.0483L14.3608 283H15.9119V265.545ZM25.3253 283.273C28.7173 283.273 31.0866 280.503 31.0866 276.514C31.0866 272.5 28.7173 269.73 25.3253 269.73C21.9332 269.73 19.5639 272.5 19.5639 276.514C19.5639 280.503 21.9332 283.273 25.3253 283.273ZM25.3253 281.884C22.6065 281.884 21.0895 279.446 21.0895 276.514C21.0895 273.582 22.6065 271.111 25.3253 271.111C28.044 271.111 29.5611 273.582 29.5611 276.514C29.5611 279.446 28.044 281.884 25.3253 281.884ZM42.6839 274.818C42.6839 272.534 44.218 271.128 46.3146 271.128C48.343 271.128 49.6385 272.457 49.6385 274.614V283H51.1641V274.52C51.1641 271.401 49.3572 269.739 46.6982 269.739C44.7209 269.739 43.4339 270.608 42.8203 271.963H42.6839V265.545H41.1669V283H42.6839V274.818ZM60.4517 283.273C63.0767 283.273 64.8409 281.849 65.4375 280.205L63.9972 279.736C63.4943 280.912 62.3097 281.884 60.4517 281.884C57.7756 281.884 56.0795 279.932 56.0114 276.906H65.7614V276.156C65.7614 271.784 63.0597 269.73 60.2216 269.73C56.8295 269.73 54.4858 272.568 54.4858 276.531C54.4858 280.503 56.7869 283.273 60.4517 283.273ZM56.0199 275.568C56.1818 273.131 57.8267 271.111 60.2216 271.111C62.5653 271.111 64.2102 273.045 64.2102 275.568H56.0199ZM69.1044 283H70.6214V274.614C70.6214 272.577 71.9766 271.128 73.7919 271.128C75.5817 271.128 76.6214 272.321 76.6214 274.094V283H78.1726V274.384C78.1726 272.5 79.2976 271.128 81.2919 271.128C83.022 271.128 84.1726 272.168 84.1726 274.23V283H85.6896V274.23C85.6896 271.298 84.1811 269.739 81.7521 269.739C79.843 269.739 78.4624 270.668 77.8743 272.116H77.7635C77.1839 270.634 76.0334 269.739 74.2266 269.739C72.5135 269.739 71.2351 270.565 70.7152 271.92H70.5788V269.909H69.1044V283ZM94.794 283.273C98.1861 283.273 100.555 280.503 100.555 276.514C100.555 272.5 98.1861 269.73 94.794 269.73C91.402 269.73 89.0327 272.5 89.0327 276.514C89.0327 280.503 91.402 283.273 94.794 283.273ZM94.794 281.884C92.0753 281.884 90.5582 279.446 90.5582 276.514C90.5582 273.582 92.0753 271.111 94.794 271.111C97.5128 271.111 99.0298 273.582 99.0298 276.514C99.0298 279.446 97.5128 281.884 94.794 281.884ZM112.681 272.781C112.042 270.889 110.644 269.73 108.249 269.73C105.607 269.73 103.69 271.239 103.69 273.395C103.69 275.151 104.755 276.344 107.031 276.889L109.17 277.401C110.61 277.741 111.3 278.483 111.3 279.531C111.3 280.895 109.996 281.909 107.985 281.909C106.195 281.909 105.079 281.099 104.712 279.548L103.255 279.906C103.715 282.088 105.445 283.273 108.011 283.273C110.891 283.273 112.869 281.688 112.869 279.463C112.869 277.716 111.769 276.548 109.579 276.011L107.602 275.526C105.974 275.116 105.215 274.46 105.215 273.327C105.215 271.997 106.485 271.068 108.249 271.068C110.013 271.068 110.883 271.997 111.292 273.173L112.681 272.781ZM128.233 283.273C130.858 283.273 132.622 281.849 133.219 280.205L131.778 279.736C131.276 280.912 130.091 281.884 128.233 281.884C125.557 281.884 123.861 279.932 123.793 276.906H133.543V276.156C133.543 271.784 130.841 269.73 128.003 269.73C124.611 269.73 122.267 272.568 122.267 276.531C122.267 280.503 124.568 283.273 128.233 283.273ZM123.801 275.568C123.963 273.131 125.608 271.111 128.003 271.111C130.347 271.111 131.991 273.045 131.991 275.568H123.801ZM138.403 274.818C138.403 272.534 139.903 271.128 141.965 271.128C143.977 271.128 145.272 272.474 145.272 274.614V283H146.789V274.52C146.789 271.418 144.991 269.739 142.349 269.739C140.431 269.739 139.11 270.625 138.496 271.963H138.36V269.909H136.886V283H138.403V274.818ZM155.898 283.273C158.625 283.273 160.543 281.551 160.892 279.182H159.358C159.009 280.852 157.636 281.884 155.898 281.884C153.332 281.884 151.636 279.651 151.636 276.463C151.636 273.293 153.384 271.111 155.898 271.111C157.764 271.111 159.026 272.312 159.349 273.795H160.884C160.526 271.366 158.497 269.73 155.872 269.73C152.446 269.73 150.111 272.577 150.111 276.514C150.111 280.418 152.378 283.273 155.898 283.273ZM169.232 283.273C172.624 283.273 174.993 280.503 174.993 276.514C174.993 272.5 172.624 269.73 169.232 269.73C165.839 269.73 163.47 272.5 163.47 276.514C163.47 280.503 165.839 283.273 169.232 283.273ZM169.232 281.884C166.513 281.884 164.996 279.446 164.996 276.514C164.996 273.582 166.513 271.111 169.232 271.111C171.95 271.111 173.467 273.582 173.467 276.514C173.467 279.446 171.95 281.884 169.232 281.884ZM179.84 274.818C179.84 272.534 181.34 271.128 183.403 271.128C185.414 271.128 186.71 272.474 186.71 274.614V283H188.227V274.52C188.227 271.418 186.428 269.739 183.786 269.739C181.869 269.739 180.548 270.625 179.934 271.963H179.798V269.909H178.323V283H179.84V274.818ZM197.378 269.909H194.608V266.773H193.082V269.909H191.131V271.23H193.082V279.94C193.082 282.08 194.77 283.196 196.449 283.196C197.08 283.196 197.506 283.077 197.795 282.966L197.472 281.594C197.259 281.653 196.986 281.713 196.585 281.713C195.554 281.713 194.608 281.227 194.608 279.582V271.23H197.378V269.909ZM200.823 283H202.34V274.545C202.34 272.602 203.832 271.196 205.877 271.196C206.278 271.196 206.653 271.264 206.789 271.281V269.739C206.585 269.73 206.235 269.713 205.988 269.713C204.343 269.713 202.937 270.599 202.408 271.92H202.298V269.909H200.823V283ZM213.034 283.298C215.216 283.298 216.545 282.088 217.091 280.929H217.185V283H218.702V274.111C218.702 270.599 216.06 269.73 214.057 269.73C212.054 269.73 209.991 270.523 209.105 272.662L210.545 273.182C211.023 272.057 212.207 271.094 214.099 271.094C216.085 271.094 217.185 272.185 217.185 273.974V274.281C217.185 275.27 215.957 275.287 213.759 275.56C210.801 275.926 208.73 276.753 208.73 279.344C208.73 281.866 210.656 283.298 213.034 283.298ZM213.239 281.909C211.526 281.909 210.247 280.997 210.247 279.412C210.247 277.827 211.543 277.162 213.759 276.889C214.832 276.761 216.741 276.523 217.185 276.088V277.98C217.185 280.128 215.659 281.909 213.239 281.909ZM227.45 283.273C229.828 283.273 230.936 281.764 231.473 280.571H231.652V283H233.135V265.545H231.609V272.406H231.473C230.953 271.23 229.871 269.73 227.476 269.73C224.246 269.73 222.064 272.457 222.064 276.489C222.064 280.554 224.237 283.273 227.45 283.273ZM227.629 281.884C225.021 281.884 223.589 279.514 223.589 276.463C223.589 273.446 225.004 271.111 227.629 271.111C230.186 271.111 231.635 273.327 231.635 276.463C231.635 279.625 230.169 281.884 227.629 281.884ZM242.544 283.273C245.936 283.273 248.305 280.503 248.305 276.514C248.305 272.5 245.936 269.73 242.544 269.73C239.152 269.73 236.783 272.5 236.783 276.514C236.783 280.503 239.152 283.273 242.544 283.273ZM242.544 281.884C239.825 281.884 238.308 279.446 238.308 276.514C238.308 273.582 239.825 271.111 242.544 271.111C245.263 271.111 246.78 273.582 246.78 276.514C246.78 279.446 245.263 281.884 242.544 281.884ZM267.181 272.781C266.542 270.889 265.144 269.73 262.749 269.73C260.107 269.73 258.19 271.239 258.19 273.395C258.19 275.151 259.255 276.344 261.531 276.889L263.67 277.401C265.11 277.741 265.8 278.483 265.8 279.531C265.8 280.895 264.496 281.909 262.485 281.909C260.695 281.909 259.579 281.099 259.212 279.548L257.755 279.906C258.215 282.088 259.945 283.273 262.511 283.273C265.391 283.273 267.369 281.688 267.369 279.463C267.369 277.716 266.269 276.548 264.079 276.011L262.102 275.526C260.474 275.116 259.715 274.46 259.715 273.327C259.715 271.997 260.985 271.068 262.749 271.068C264.513 271.068 265.383 271.997 265.792 273.173L267.181 272.781ZM275.778 283.273C279.17 283.273 281.54 280.503 281.54 276.514C281.54 272.5 279.17 269.73 275.778 269.73C272.386 269.73 270.017 272.5 270.017 276.514C270.017 280.503 272.386 283.273 275.778 283.273ZM275.778 281.884C273.06 281.884 271.543 279.446 271.543 276.514C271.543 273.582 273.06 271.111 275.778 271.111C278.497 271.111 280.014 273.582 280.014 276.514C280.014 279.446 278.497 281.884 275.778 281.884ZM286.387 265.545H284.87V283H286.387V265.545ZM290.418 283H291.944V269.909H290.418V283ZM291.194 267.659C291.816 267.659 292.336 267.165 292.336 266.568C292.336 265.972 291.816 265.477 291.194 265.477C290.572 265.477 290.06 265.972 290.06 266.568C290.06 267.165 290.572 267.659 291.194 267.659ZM301.07 283.273C303.797 283.273 305.714 281.551 306.064 279.182H304.53C304.18 280.852 302.808 281.884 301.07 281.884C298.504 281.884 296.808 279.651 296.808 276.463C296.808 273.293 298.555 271.111 301.07 271.111C302.936 271.111 304.197 272.312 304.521 273.795H306.055C305.697 271.366 303.669 269.73 301.044 269.73C297.618 269.73 295.283 272.577 295.283 276.514C295.283 280.418 297.55 283.273 301.07 283.273ZM309.332 283H310.858V269.909H309.332V283ZM310.108 267.659C310.73 267.659 311.25 267.165 311.25 266.568C311.25 265.972 310.73 265.477 310.108 265.477C309.486 265.477 308.974 265.972 308.974 266.568C308.974 267.165 309.486 267.659 310.108 267.659ZM320.026 269.909H317.256V266.773H315.731V269.909H313.779V271.23H315.731V279.94C315.731 282.08 317.418 283.196 319.097 283.196C319.728 283.196 320.154 283.077 320.444 282.966L320.12 281.594C319.907 281.653 319.634 281.713 319.234 281.713C318.202 281.713 317.256 281.227 317.256 279.582V271.23H320.026V269.909ZM331.79 277.997C331.79 280.401 329.983 281.696 328.21 281.696C326.318 281.696 324.989 280.341 324.989 278.295V269.909H323.472V278.389C323.472 281.491 325.261 283.17 327.776 283.17C329.693 283.17 331.057 282.173 331.67 280.827H331.79V283H333.307V269.909H331.79V277.997ZM342.036 283.273C344.414 283.273 345.522 281.764 346.059 280.571H346.238V283H347.721V265.545H346.195V272.406H346.059C345.539 271.23 344.457 269.73 342.062 269.73C338.832 269.73 336.65 272.457 336.65 276.489C336.65 280.554 338.823 283.273 342.036 283.273ZM342.215 281.884C339.607 281.884 338.175 279.514 338.175 276.463C338.175 273.446 339.59 271.111 342.215 271.111C344.772 271.111 346.221 273.327 346.221 276.463C346.221 279.625 344.755 281.884 342.215 281.884ZM357.335 283.273C359.96 283.273 361.724 281.849 362.32 280.205L360.88 279.736C360.377 280.912 359.192 281.884 357.335 281.884C354.658 281.884 352.962 279.932 352.894 276.906H362.644V276.156C362.644 271.784 359.942 269.73 357.104 269.73C353.712 269.73 351.369 272.568 351.369 276.531C351.369 280.503 353.67 283.273 357.335 283.273ZM352.903 275.568C353.065 273.131 354.71 271.111 357.104 271.111C359.448 271.111 361.093 273.045 361.093 275.568H352.903ZM374.783 272.781C374.143 270.889 372.746 269.73 370.351 269.73C367.709 269.73 365.791 271.239 365.791 273.395C365.791 275.151 366.857 276.344 369.132 276.889L371.271 277.401C372.712 277.741 373.402 278.483 373.402 279.531C373.402 280.895 372.098 281.909 370.087 281.909C368.297 281.909 367.18 281.099 366.814 279.548L365.357 279.906C365.817 282.088 367.547 283.273 370.112 283.273C372.993 283.273 374.97 281.688 374.97 279.463C374.97 277.716 373.871 276.548 371.68 276.011L369.703 275.526C368.075 275.116 367.317 274.46 367.317 273.327C367.317 271.997 368.587 271.068 370.351 271.068C372.115 271.068 372.984 271.997 373.393 273.173L374.783 272.781Z" fill="#969696"/>
<defs>
<clipPath id="clip0_665:4417">
<rect width="20.4088" height="27.2117" fill="white" transform="translate(352.738 13.606)"/>
</clipPath>
</defs>
</svg>
