<svg width="53" height="42" viewBox="0 0 53 42" fill="none" xmlns="http://www.w3.org/2000/svg">
<path d="M47.1991 36.3999H42.0243V13.9416L26.5001 23.5666L10.9759 13.9416V36.3999H5.8012V5.59989H8.90604L26.5001 16.5082L44.0942 5.59989H47.1991V36.3999ZM47.1991 0.466553H5.8012C2.92922 0.466553 0.626465 2.75089 0.626465 5.59989V36.3999C0.626465 37.7613 1.17166 39.067 2.14211 40.0297C3.11256 40.9924 4.42877 41.5332 5.8012 41.5332H47.1991C48.5715 41.5332 49.8877 40.9924 50.8581 40.0297C51.8286 39.067 52.3738 37.7613 52.3738 36.3999V5.59989C52.3738 4.23844 51.8286 2.93276 50.8581 1.97007C49.8877 1.00738 48.5715 0.466553 47.1991 0.466553V0.466553Z" fill="white"/>
</svg>
