<svg width="40" height="38" viewBox="0 0 40 38" fill="none" xmlns="http://www.w3.org/2000/svg">
<path d="M34.7335 7.54931C33.8822 6.75287 32.8715 6.12107 31.759 5.69002C30.6466 5.25897 29.4543 5.03711 28.2501 5.03711C27.046 5.03711 25.8536 5.25897 24.7412 5.69002C23.6288 6.12107 22.618 6.75287 21.7668 7.54931L20.0001 9.20143L18.2335 7.54931C16.514 5.94131 14.1818 5.03794 11.7501 5.03794C9.3184 5.03794 6.98627 5.94131 5.26678 7.54931C3.5473 9.1573 2.5813 11.3382 2.5813 13.6123C2.5813 15.8863 3.5473 18.0672 5.26678 19.6752L7.03345 21.3274L20.0001 33.4533L32.9668 21.3274L34.7335 19.6752C35.5851 18.8792 36.2607 17.934 36.7216 16.8937C37.1826 15.8534 37.4198 14.7383 37.4198 13.6123C37.4198 12.4862 37.1826 11.3712 36.7216 10.3309C36.2607 9.29056 35.5851 8.34537 34.7335 7.54931V7.54931Z" fill="#EA3E66" stroke="#EA3E66" stroke-width="2" stroke-linecap="round" stroke-linejoin="round"/>
</svg>
