<svg width="46" height="46" viewBox="0 0 46 46" fill="none" xmlns="http://www.w3.org/2000/svg">
<path fill-rule="evenodd" clip-rule="evenodd" d="M13.5522 0.220752C15.996 0.108252 16.7752 0.083252 23.0002 0.083252C29.2252 0.083252 30.0043 0.110335 32.446 0.220752C34.8877 0.331169 36.5543 0.720752 38.0127 1.28534C39.5397 1.86242 40.9252 2.7645 42.071 3.93117C43.2377 5.07492 44.1377 6.45825 44.7127 7.98742C45.2793 9.44575 45.6668 11.1124 45.7793 13.5499C45.8918 15.9978 45.9168 16.777 45.9168 22.9999C45.9168 29.2249 45.8897 30.0041 45.7793 32.4478C45.6689 34.8853 45.2793 36.552 44.7127 38.0103C44.1376 39.5397 43.2362 40.9253 42.071 42.0707C40.9252 43.2374 39.5397 44.1374 38.0127 44.7124C36.5543 45.2791 34.8877 45.6666 32.4502 45.7791C30.0043 45.8916 29.2252 45.9166 23.0002 45.9166C16.7752 45.9166 15.996 45.8895 13.5522 45.7791C11.1147 45.6687 9.44808 45.2791 7.98975 44.7124C6.46041 44.1373 5.07479 43.2359 3.92933 42.0707C2.76345 40.9263 1.86124 39.5413 1.28558 38.0124C0.720996 36.5541 0.333496 34.8874 0.220996 32.4499C0.108496 30.002 0.0834961 29.2228 0.0834961 22.9999C0.0834961 16.7749 0.110579 15.9958 0.220996 13.5541C0.331413 11.1124 0.720996 9.44575 1.28558 7.98742C1.86209 6.45842 2.76499 5.07349 3.93141 3.92909C5.07525 2.76346 6.45948 1.86126 7.98766 1.28534C9.446 0.720752 11.1127 0.333252 13.5502 0.220752H13.5522ZM32.2606 4.34575C29.8439 4.23534 29.1189 4.21242 23.0002 4.21242C16.8814 4.21242 16.1564 4.23534 13.7397 4.34575C11.5043 4.44783 10.2918 4.82075 9.4835 5.13533C8.41475 5.552 7.65016 6.04575 6.84808 6.84784C6.08776 7.58753 5.50262 8.48801 5.13558 9.48325C4.821 10.2916 4.44808 11.5041 4.346 13.7395C4.23558 16.1562 4.21266 16.8812 4.21266 22.9999C4.21266 29.1187 4.23558 29.8437 4.346 32.2603C4.44808 34.4958 4.821 35.7083 5.13558 36.5166C5.50225 37.5103 6.08766 38.4124 6.84808 39.152C7.58766 39.9124 8.48975 40.4978 9.4835 40.8645C10.2918 41.1791 11.5043 41.552 13.7397 41.6541C16.1564 41.7645 16.8793 41.7874 23.0002 41.7874C29.121 41.7874 29.8439 41.7645 32.2606 41.6541C34.496 41.552 35.7085 41.1791 36.5168 40.8645C37.5856 40.4478 38.3502 39.9541 39.1522 39.152C39.9127 38.4124 40.4981 37.5103 40.8647 36.5166C41.1793 35.7083 41.5522 34.4958 41.6543 32.2603C41.7647 29.8437 41.7877 29.1187 41.7877 22.9999C41.7877 16.8812 41.7647 16.1562 41.6543 13.7395C41.5522 11.5041 41.1793 10.2916 40.8647 9.48325C40.4481 8.4145 39.9543 7.64992 39.1522 6.84784C38.4125 6.08757 37.512 5.50244 36.5168 5.13533C35.7085 4.82075 34.496 4.44783 32.2606 4.34575ZM20.0731 30.0645C21.7078 30.745 23.528 30.8368 25.2229 30.3243C26.9178 29.8118 28.3822 28.7268 29.366 27.2546C30.3498 25.7824 30.7919 24.0142 30.6169 22.2522C30.4419 20.4902 29.6606 18.8436 28.4064 17.5937C27.6069 16.7947 26.6402 16.1829 25.5759 15.8023C24.5115 15.4218 23.3761 15.2819 22.2512 15.3929C21.1263 15.5038 20.0401 15.8628 19.0706 16.4439C18.1011 17.0251 17.2725 17.814 16.6445 18.7538C16.0165 19.6936 15.6047 20.7609 15.4387 21.879C15.2728 22.9971 15.3567 24.138 15.6846 25.2197C16.0125 26.3015 16.5762 27.297 17.335 28.1348C18.0938 28.9725 19.029 29.6316 20.0731 30.0645ZM14.671 14.6708C15.7648 13.5769 17.0633 12.7093 18.4924 12.1173C19.9216 11.5254 21.4533 11.2207 23.0002 11.2207C24.547 11.2207 26.0788 11.5254 27.5079 12.1173C28.937 12.7093 30.2355 13.5769 31.3293 14.6708C32.4231 15.7646 33.2908 17.0631 33.8827 18.4922C34.4747 19.9213 34.7794 21.453 34.7794 22.9999C34.7794 24.5468 34.4747 26.0785 33.8827 27.5076C33.2908 28.9368 32.4231 30.2353 31.3293 31.3291C29.1203 33.5381 26.1242 34.7791 23.0002 34.7791C19.8761 34.7791 16.88 33.5381 14.671 31.3291C12.462 29.1201 11.2209 26.124 11.2209 22.9999C11.2209 19.8759 12.462 16.8798 14.671 14.6708ZM37.3918 12.9749C37.6629 12.7192 37.8799 12.4118 38.03 12.0707C38.18 11.7296 38.2602 11.3619 38.2656 10.9894C38.271 10.6168 38.2017 10.2469 38.0616 9.90161C37.9215 9.55632 37.7136 9.24265 37.4501 8.97917C37.1866 8.71568 36.8729 8.50775 36.5276 8.36766C36.1824 8.22758 35.8125 8.1582 35.4399 8.16363C35.0673 8.16906 34.6996 8.2492 34.3586 8.39929C34.0175 8.54937 33.71 8.76637 33.4543 9.03742C32.9571 9.56456 32.6848 10.2648 32.6954 10.9894C32.7059 11.714 32.9985 12.4059 33.5109 12.9183C34.0233 13.4308 34.7153 13.7233 35.4399 13.7339C36.1645 13.7444 36.8647 13.4722 37.3918 12.9749Z" fill="white"/>
</svg>
