<svg width="202" height="202" viewBox="0 0 202 202" fill="none" xmlns="http://www.w3.org/2000/svg">
<g clip-path="url(#clip0)">
<path d="M196.5 32.1189L170.617 1.95299C170.568 1.89578 170.517 1.84055 170.463 1.78768C168.203 -0.472587 164.538 -0.606333 162.12 1.48232L141.495 19.2911C140.27 20.3476 139.531 21.8184 139.413 23.4309C139.296 25.0437 139.813 26.6057 140.869 27.8295L141.677 28.7649L140.347 29.9138C136.816 32.9632 131.502 33.8753 126.134 32.3528C126.025 32.322 110.75 27.9869 110.639 27.9613C107.855 27.3143 100.652 26.2924 93.7725 30.7309C93.6616 30.7944 54.2448 53.3545 54.1379 53.4243C50.5402 55.7682 45.5288 61.6278 49.57 68.7215C49.5858 68.7491 49.602 68.7763 49.6185 68.8036C51.3501 71.6276 53.8467 73.3091 56.7603 73.7758C56.8688 76.6713 58.1582 79.4464 60.4524 81.4321C64.9102 85.2906 71.678 84.8034 75.5369 80.3448L90.146 63.4651C90.7382 62.781 91.2345 62.0306 91.6337 61.2258L92.2366 60.9772C93.0241 63.9303 95.177 66.8699 99.5764 68.1171C117.906 73.3158 121.722 74.8217 126.854 74.2544C141.161 72.7208 144.44 72.2518 151.646 68.1044C156.829 65.1214 161.873 61.6341 166.678 57.7212L167.556 58.7387C169.746 61.2743 173.568 61.5469 176.095 59.364L195.729 42.4114C198.77 39.7854 199.116 35.1682 196.5 32.1189ZM71.0621 76.4705C68.1023 79.8899 62.5162 77.6229 62.6795 73.1876C62.6795 73.1876 80.1628 65.955 80.1639 65.9546L71.0621 76.4705ZM148.694 62.9743C142.563 66.503 140.5 66.8384 126.285 68.3625C122.392 68.7799 119.342 67.5706 101.192 62.4228C98.8667 61.7635 98.2595 60.5204 98.0054 59.6429C97.6578 58.4439 97.8796 57.2982 97.8788 57.2982C97.8819 57.2844 97.8823 57.2706 97.8855 57.2568C97.891 57.2312 97.8985 57.2063 97.9032 57.1807C97.9048 57.1732 98.0902 56.3821 98.6004 55.6937C99.0415 55.0987 99.7055 54.5191 101.294 54.7385C106.893 55.509 120.228 57.2919 120.362 57.3101C121.986 57.5267 123.471 56.3888 123.687 54.7689C123.904 53.1489 122.766 51.66 121.146 51.4434C121.012 51.4256 107.689 49.6443 102.101 48.8754C96.8688 48.1546 93.7859 51.3854 92.5711 54.4375L88.255 56.2172C54.1876 70.2637 61.8679 67.2144 59.3394 67.9443C54.5806 68.6122 51.3198 62.4192 57.304 58.427L96.7792 35.8302C96.782 35.829 96.7847 35.8274 96.7875 35.8259C96.8352 35.7983 96.8826 35.7694 96.9287 35.7395C101.871 32.5217 107.133 33.2334 109.234 33.712L124.52 38.0479C131.808 40.1144 139.172 38.7486 144.214 34.3945L145.545 33.2456C147.802 35.8598 160.805 50.9187 162.81 53.2413C158.292 56.91 153.555 60.1767 148.694 62.9743ZM191.861 37.9311C191.799 37.9851 172.212 54.9263 172.13 54.9164C172.016 54.9082 145.185 23.924 145.362 23.7714L165.987 5.96222H165.987C166.027 5.92789 166.077 5.91093 166.127 5.91093C166.167 5.91093 166.207 5.92198 166.242 5.94407L192.008 35.9734C192.506 36.553 192.44 37.4316 191.861 37.9311Z" fill="black"/>
<path d="M145.813 128.361C145.456 118.818 133.414 114.423 127.037 121.792L112.426 138.673C111.834 139.357 111.338 140.107 110.94 140.911L110.337 141.16C109.549 138.207 107.397 135.267 102.997 134.02C83.5929 128.516 81.0631 127.413 75.7768 127.877C75.7579 127.879 75.7389 127.881 75.72 127.883C61.4127 129.417 58.1334 129.886 50.9276 134.033C45.7443 137.016 40.6998 140.503 35.896 144.417L35.0174 143.399C32.8348 140.872 29.0043 140.592 26.4781 142.774L5.77512 160.649C3.3093 162.778 3.05167 166.5 5.19989 168.95L32.4849 200.043C34.5274 202.371 38.0805 202.662 40.3996 200.701C40.409 200.693 40.4446 200.663 40.4544 200.655L61.0793 182.845C63.6118 180.658 63.8923 176.839 61.7051 174.307L60.8974 173.371L62.2278 172.223C65.7589 169.173 71.0732 168.262 76.44 169.784L90.163 173.676C91.7348 174.121 93.3717 173.209 93.8179 171.637C94.2637 170.064 93.3504 168.428 91.7782 167.982L78.0548 164.09C70.7655 162.023 63.4027 163.389 58.3598 167.743L57.0295 168.891L39.764 148.896C44.2818 145.227 49.0189 141.96 53.8799 139.162C60.0157 135.631 62.0759 135.298 76.3216 133.771C79.6519 133.481 81.7338 134.081 93.1496 137.36C101.995 139.901 103.821 139.914 104.569 142.494C104.916 143.692 104.694 144.838 104.695 144.838C104.55 145.474 104.276 146.035 103.974 146.443C103.532 147.038 102.866 147.617 101.281 147.398C95.6805 146.628 82.3465 144.845 82.2128 144.827C80.5889 144.611 79.1039 145.748 78.8873 147.368C78.6707 148.988 79.8081 150.477 81.4281 150.693C81.5622 150.711 94.8851 152.493 100.474 153.261C105.096 153.898 108.523 151.411 110.001 147.7C110.149 147.639 139.802 135.418 139.945 135.347C143.07 133.759 146.023 133.396 147.884 136.385C150.027 140.214 146.227 143.071 145.27 143.71L105.795 166.306C105.777 166.316 105.76 166.327 105.743 166.337C105.711 166.356 105.676 166.378 105.646 166.397C104.993 166.822 104.296 167.201 103.574 167.524C102.081 168.19 101.412 169.941 102.079 171.433C102.745 172.926 104.497 173.595 105.987 172.928C106.97 172.489 107.923 171.973 108.805 171.403C108.922 171.336 148.322 148.785 148.436 148.711C159.168 141.723 154.006 129.672 145.813 128.361ZM57.2255 178.175C57.2366 178.187 57.2622 178.217 57.2583 178.273C57.2516 178.36 36.8677 195.931 36.8022 195.988L9.68847 165.09L30.3465 147.252C30.3591 147.242 30.3931 147.214 30.4444 147.22C30.5008 147.224 30.5264 147.254 30.5371 147.267C33.3241 150.494 54.3683 174.866 57.2255 178.175ZM122.41 136.182L131.512 125.665C134.435 122.288 140.059 124.456 139.894 128.948C139.894 128.949 122.413 136.181 122.41 136.182Z" fill="black"/>
<path d="M97.901 91.9574C98.4545 92.9339 100.089 94.2425 102.021 94.1956C103.619 94.1581 105.099 93.2057 105.9 91.9156C109.712 85.7909 117.687 87.1714 120.068 92.7465C120.71 94.2489 122.448 94.948 123.952 94.3057C125.455 93.6638 126.153 91.9247 125.511 90.4219C121.469 80.9602 108.583 78.8168 101.902 87.3221C93.8022 76.9451 77.1577 82.8402 77.1699 95.8794C77.1841 109.589 89.0544 120.073 100.159 125.315C101.302 125.854 102.603 125.827 103.688 125.311C111.672 121.523 120.16 114.802 124.089 106.684C124.801 105.213 124.185 103.443 122.714 102.732C121.242 102.019 119.473 102.635 118.761 104.106C115.561 110.72 108.472 116.286 101.915 119.59C92.6786 115.022 83.1001 106.523 83.0891 95.8735C83.082 87.8425 93.859 84.8456 97.901 91.9574Z" fill="black"/>
</g>
<defs>
<clipPath id="clip0">
<rect width="202" height="202" fill="white"/>
</clipPath>
</defs>
</svg>
