<svg width="57" height="57" viewBox="0 0 57 57" fill="none" xmlns="http://www.w3.org/2000/svg">
<g clip-path="url(#clip0)">
<path d="M55.4481 9.06299L48.1444 0.550847C48.1305 0.534705 48.1161 0.519119 48.1011 0.504201C47.4632 -0.133598 46.4291 -0.171338 45.7466 0.418033L39.9267 5.44327C39.5813 5.74141 39.3726 6.15644 39.3395 6.61144C39.3063 7.06655 39.4521 7.5073 39.7503 7.85264L39.9781 8.11659L39.6027 8.44078C38.6065 9.30124 37.107 9.55863 35.5924 9.12901C35.5616 9.12033 31.2512 7.89706 31.2201 7.88982C30.4344 7.70724 28.4018 7.4189 26.4606 8.67134C26.4293 8.68927 15.3067 15.0552 15.2766 15.0749C14.2614 15.7363 12.8473 17.3898 13.9876 19.3915C13.9921 19.3993 13.9966 19.4069 14.0013 19.4146C14.4899 20.2115 15.1944 20.686 16.0166 20.8177C16.0472 21.6347 16.411 22.4178 17.0584 22.9781C18.3163 24.0669 20.226 23.9294 21.3149 22.6713L25.4372 17.9082C25.6044 17.7152 25.7444 17.5034 25.8571 17.2763L26.0272 17.2062C26.2494 18.0395 26.8569 18.869 28.0983 19.2209C33.2706 20.6879 34.3473 21.1128 35.7954 20.9527C39.8326 20.52 40.7579 20.3876 42.7912 19.2173C44.2537 18.3756 45.6771 17.3916 47.0328 16.2874L47.2807 16.5745C47.8987 17.29 48.9771 17.367 49.6903 16.751L55.2304 11.9673C56.0887 11.2263 56.1862 9.92345 55.4481 9.06299ZM20.0522 21.5781C19.217 22.5429 17.6407 21.9032 17.6868 20.6517C17.6868 20.6517 22.6202 18.6108 22.6205 18.6107L20.0522 21.5781ZM41.9582 17.7697C40.2283 18.7655 39.6459 18.8601 35.6349 19.2901C34.5364 19.4079 33.6756 19.0667 28.5541 17.6141C27.898 17.4281 27.7267 17.0773 27.655 16.8297C27.5569 16.4914 27.6195 16.1681 27.6193 16.1681C27.6202 16.1642 27.6203 16.1603 27.6212 16.1564C27.6227 16.1491 27.6248 16.1421 27.6262 16.1349C27.6266 16.1328 27.679 15.9096 27.8229 15.7153C27.9474 15.5474 28.1347 15.3839 28.5829 15.4458C30.163 15.6632 33.9257 16.1663 33.9634 16.1714C34.4218 16.2325 34.8408 15.9115 34.9018 15.4543C34.9629 14.9972 34.642 14.5771 34.1849 14.516C34.147 14.5109 30.3876 14.0083 28.8106 13.7913C27.3343 13.5879 26.4644 14.4996 26.1216 15.3608L24.9037 15.863C15.2906 19.8266 17.4578 18.9662 16.7443 19.1721C15.4015 19.3606 14.4813 17.6131 16.17 16.4866L27.309 10.1103C27.3098 10.1099 27.3106 10.1095 27.3113 10.109C27.3248 10.1012 27.3382 10.0931 27.3512 10.0847C28.7459 9.17666 30.2306 9.3775 30.8234 9.51254L35.1367 10.736C37.1935 11.3192 39.2713 10.9338 40.6942 9.70514L41.0696 9.38095C41.7065 10.1186 45.3757 14.3679 45.9415 15.0233C44.6665 16.0585 43.3298 16.9803 41.9582 17.7697ZM54.1391 10.7031C54.1214 10.7183 48.5945 15.4988 48.5712 15.496C48.5393 15.4936 40.9682 6.7506 41.0181 6.70751L46.838 1.68216H46.8381C46.8493 1.67248 46.8633 1.66769 46.8774 1.66769C46.8887 1.66769 46.9 1.67081 46.9098 1.67704L54.1804 10.1507C54.3209 10.3142 54.3024 10.5621 54.1391 10.7031Z" fill="#73B8B2"/>
<path d="M41.1454 36.2205C41.0447 33.5277 37.6466 32.2877 35.8471 34.367L31.7244 39.1303C31.5573 39.3234 31.4174 39.535 31.3049 39.762L31.1348 39.8321C30.9126 38.9988 30.3051 38.1693 29.0637 37.8174C23.5882 36.2644 22.8744 35.9531 21.3827 36.0841C21.3774 36.0845 21.372 36.0851 21.3667 36.0856C17.3295 36.5185 16.4041 36.6508 14.3708 37.821C12.9082 38.6629 11.4848 39.6469 10.1292 40.7512L9.8813 40.464C9.26543 39.751 8.18455 39.6718 7.47171 40.2876L1.62977 45.3315C0.933969 45.9321 0.861272 46.9826 1.46745 47.6738L9.16668 56.4478C9.74303 57.1045 10.7457 57.1867 11.4 56.6333C11.4027 56.631 11.4127 56.6225 11.4155 56.6202L17.2354 51.5948C17.95 50.9778 18.0292 49.9001 17.412 49.1854L17.1841 48.9214L17.5595 48.5973C18.5559 47.7369 20.0555 47.4797 21.5699 47.9091L25.4422 49.0075C25.8857 49.1329 26.3476 48.8757 26.4735 48.432C26.5993 47.9883 26.3416 47.5266 25.898 47.4008L22.0255 46.3024C19.9686 45.7192 17.891 46.1046 16.468 47.3332L16.0926 47.6573L11.2207 42.0151C12.4955 40.9798 13.8322 40.0579 15.2039 39.2684C16.9353 38.2719 17.5166 38.1779 21.5365 37.7471C22.4762 37.6652 23.0637 37.8346 26.2849 38.7599C28.781 39.4769 29.2963 39.4806 29.5071 40.2084C29.6052 40.5468 29.5428 40.8701 29.5428 40.8701C29.5018 41.0495 29.4246 41.2078 29.3393 41.3229C29.2148 41.4907 29.0266 41.6541 28.5794 41.5925C26.9991 41.375 23.2366 40.8719 23.1988 40.8668C22.7406 40.806 22.3215 41.1267 22.2604 41.5839C22.1993 42.041 22.5203 42.4612 22.9774 42.5223C23.0152 42.5273 26.7747 43.0299 28.3516 43.2469C29.656 43.4266 30.623 42.7248 31.0401 41.6776C31.0817 41.6605 39.4493 38.2118 39.4895 38.1917C40.3714 37.7438 41.2046 37.6414 41.7299 38.4848C42.3346 39.5653 41.2624 40.3715 40.9923 40.5517L29.8532 46.9279C29.8482 46.9308 29.8433 46.9337 29.8384 46.9365C29.8296 46.9418 29.8196 46.948 29.8111 46.9536C29.6269 47.0735 29.4302 47.1805 29.2263 47.2714C28.8053 47.4595 28.6164 47.9534 28.8045 48.3745C28.9926 48.7957 29.4868 48.9845 29.9074 48.7963C30.1849 48.6724 30.4536 48.5269 30.7024 48.366C30.7355 48.3471 41.8535 41.9838 41.8855 41.963C44.914 39.991 43.4573 36.5905 41.1454 36.2205ZM16.148 50.2768C16.1511 50.2804 16.1583 50.2887 16.1572 50.3046C16.1553 50.329 10.4034 55.2874 10.3849 55.3034L2.73403 46.5846L8.56328 41.5513C8.56685 41.5483 8.57642 41.5404 8.59089 41.5421C8.60681 41.5433 8.61405 41.5517 8.61706 41.5553C9.40348 42.4661 15.3417 49.3431 16.148 50.2768ZM34.5417 38.4274L37.11 35.4598C37.9348 34.5069 39.5219 35.1185 39.4753 36.3863L34.5417 38.4274Z" fill="#73B8B2"/>
<path d="M27.6255 25.9482C27.7817 26.2237 28.2429 26.593 28.7881 26.5798C29.2391 26.5692 29.6567 26.3004 29.8828 25.9364C30.9584 24.2081 33.2087 24.5977 33.8805 26.1709C34.0616 26.5948 34.5522 26.7921 34.9765 26.6108C35.4006 26.4297 35.5976 25.939 35.4165 25.5149C34.276 22.845 30.6396 22.2402 28.7544 24.6402C26.4689 21.7121 21.7722 23.3755 21.7756 27.0549C21.7796 30.9233 25.1292 33.8819 28.2627 35.3609C28.5852 35.5132 28.9524 35.5054 29.2586 35.3599C31.5115 34.291 33.9066 32.3943 35.0151 30.1039C35.2161 29.6887 35.0423 29.1893 34.6272 28.9885C34.2119 28.7873 33.7127 28.9612 33.5118 29.3763C32.6086 31.2425 30.6083 32.8133 28.7581 33.7454C26.1518 32.4566 23.449 30.0583 23.4459 27.0532C23.4439 24.787 26.4849 23.9414 27.6255 25.9482Z" fill="#73B8B2"/>
</g>
<defs>
<clipPath id="clip0">
<rect width="57" height="57" fill="white"/>
</clipPath>
</defs>
</svg>
