<svg width="76" height="76" viewBox="0 0 76 76" fill="none" xmlns="http://www.w3.org/2000/svg">
<rect width="76" height="76" fill="white"/>
<g clip-path="url(#clip0_642:4280)">
<path d="M65.4481 17.7643L58.1444 8.90235C58.1305 8.88555 58.1161 8.86932 58.1011 8.85379C57.4632 8.18978 56.4291 8.15049 55.7466 8.76408L49.9267 13.9958C49.5813 14.3062 49.3726 14.7383 49.3395 15.212C49.3063 15.6858 49.4521 16.1447 49.7503 16.5042L49.9782 16.779L49.6028 17.1165C48.6065 18.0123 47.107 18.2803 45.5924 17.833C45.5617 17.824 41.2513 16.5505 41.2201 16.5429C40.4344 16.3528 38.4018 16.0527 36.4606 17.3566C36.4293 17.3752 25.3067 24.0028 25.2766 24.0233C24.2614 24.7119 22.8473 26.4333 23.9876 28.5172C23.9921 28.5253 23.9966 28.5333 24.0013 28.5413C24.4899 29.371 25.1944 29.865 26.0166 30.0021C26.0472 30.8527 26.411 31.6679 27.0584 32.2513C28.3163 33.3848 30.226 33.2417 31.3149 31.9319L35.4373 26.9731C35.6044 26.7721 35.7444 26.5516 35.8571 26.3152L36.0272 26.2422C36.2494 27.1097 36.8569 27.9733 38.0983 28.3397C43.2706 29.8669 44.3473 30.3093 45.7954 30.1427C49.8326 29.6921 50.7579 29.5543 52.7912 28.336C54.2537 27.4596 55.6772 26.4351 57.0328 25.2856L57.2807 25.5845C57.8987 26.3294 58.9771 26.4095 59.6903 25.7682L65.2304 20.788C66.0887 20.0165 66.1862 18.6601 65.4481 17.7643ZM30.0522 30.7937C29.217 31.7982 27.6407 31.1322 27.6868 29.8293C27.6868 29.8293 32.6202 27.7045 32.6205 27.7044L30.0522 30.7937ZM51.9582 26.8289C50.2283 27.8655 49.6459 27.964 45.6349 28.4118C44.5364 28.5344 43.6756 28.1791 38.5541 26.6668C37.898 26.4732 37.7267 26.108 37.655 25.8502C37.5569 25.498 37.6195 25.1614 37.6193 25.1614C37.6202 25.1573 37.6203 25.1533 37.6212 25.1492C37.6227 25.1417 37.6248 25.1344 37.6262 25.1268C37.6266 25.1246 37.679 24.8922 37.8229 24.69C37.9474 24.5152 38.1347 24.3449 38.5829 24.4094C40.163 24.6358 43.9257 25.1595 43.9634 25.1649C44.4218 25.2285 44.8408 24.8942 44.9018 24.4183C44.9629 23.9424 44.642 23.505 44.1849 23.4414C44.147 23.4362 40.3876 22.9129 38.8106 22.687C37.3343 22.4752 36.4644 23.4243 36.1216 24.321L34.9037 24.8438C25.2906 28.9703 27.4578 28.0745 26.7443 28.2889C25.4015 28.4851 24.4813 26.6658 26.17 25.493L37.309 18.8546C37.3098 18.8543 37.3106 18.8538 37.3113 18.8533C37.3248 18.8452 37.3382 18.8368 37.3512 18.828C38.7459 17.8827 40.2306 18.0917 40.8234 18.2323L45.1367 19.5061C47.1935 20.1132 49.2713 19.712 50.6942 18.4328L51.0696 18.0953C51.7065 18.8633 55.3757 23.2872 55.9416 23.9695C54.6665 25.0473 53.3298 26.007 51.9582 26.8289ZM64.1391 19.4718C64.1214 19.4877 58.5945 24.4646 58.5712 24.4617C58.5393 24.4592 50.9682 15.3569 51.0181 15.312L56.838 10.0802H56.8381C56.8493 10.0701 56.8634 10.0651 56.8774 10.0651C56.8887 10.0651 56.9 10.0683 56.9098 10.0748L64.1804 18.8967C64.3209 19.067 64.3024 19.3251 64.1391 19.4718Z" fill="#73B8B2"/>
<path d="M51.1454 46.0378C51.0447 43.2344 47.6466 41.9433 45.8471 44.1082L41.7244 49.0672C41.5573 49.2682 41.4174 49.4885 41.3049 49.7248L41.1348 49.7979C40.9126 48.9303 40.3051 48.0667 39.0637 47.7004C33.5882 46.0835 32.8744 45.7594 31.3827 45.8957C31.3774 45.8962 31.372 45.8968 31.3667 45.8974C27.3295 46.348 26.4041 46.4858 24.3708 47.7041C22.9082 48.5805 21.4848 49.605 20.1292 50.7546L19.8813 50.4557C19.2654 49.7134 18.1845 49.631 17.4717 50.272L11.6298 55.5233C10.934 56.1485 10.8613 57.2422 11.4675 57.9617L19.1667 67.0963C19.743 67.78 20.7457 67.8657 21.4 67.2895C21.4027 67.2871 21.4127 67.2783 21.4155 67.2758L27.2354 62.044C27.95 61.4015 28.0292 60.2796 27.412 59.5355L27.1841 59.2607L27.5595 58.9233C28.5559 58.0275 30.0555 57.7597 31.5699 58.2068L35.4422 59.3503C35.8857 59.4809 36.3476 59.213 36.4735 58.7512C36.5993 58.2892 36.3416 57.8085 35.898 57.6775L32.0255 56.534C29.9686 55.9268 27.891 56.3281 26.468 57.6072L26.0926 57.9446L21.2207 52.0705C22.4955 50.9927 23.8322 50.0329 25.2039 49.2109C26.9353 48.1735 27.5166 48.0757 31.5365 47.6271C32.4762 47.5419 33.0637 47.7182 36.2849 48.6816C38.781 49.428 39.2963 49.4318 39.5071 50.1896C39.6052 50.5418 39.5428 50.8784 39.5428 50.8784C39.5018 51.0653 39.4246 51.2301 39.3393 51.3499C39.2148 51.5246 39.0266 51.6947 38.5794 51.6305C36.9991 51.4042 33.2366 50.8804 33.1988 50.8751C32.7406 50.8118 32.3215 51.1456 32.2604 51.6216C32.1993 52.0975 32.5203 52.5349 32.9774 52.5985C33.0152 52.6038 36.7747 53.1271 38.3516 53.353C39.656 53.54 40.623 52.8094 41.0401 51.7192C41.0817 51.7013 49.4493 48.1109 49.4895 48.09C50.3714 47.6237 51.2046 47.5171 51.7299 48.3952C52.3346 49.52 51.2624 50.3594 50.9923 50.5469L39.8532 57.1852C39.8482 57.1882 39.8433 57.1912 39.8384 57.1942C39.8296 57.1997 39.8196 57.2062 39.8111 57.212C39.6269 57.3368 39.4302 57.4482 39.2263 57.5429C38.8053 57.7386 38.6164 58.2529 38.8045 58.6912C38.9926 59.1298 39.4868 59.3264 39.9074 59.1304C40.1849 59.0014 40.4536 58.8499 40.7024 58.6824C40.7355 58.6627 51.8535 52.0379 51.8855 52.0162C54.914 49.9633 53.4573 46.423 51.1454 46.0378ZM26.148 60.6718C26.1511 60.6755 26.1583 60.6842 26.1572 60.7006C26.1553 60.7261 20.4034 65.8882 20.3849 65.9049L12.734 56.8279L18.5633 51.5876C18.5668 51.5845 18.5764 51.5763 18.5909 51.5781C18.6068 51.5793 18.6141 51.5881 18.6171 51.5918C19.4035 52.54 25.3417 59.6997 26.148 60.6718ZM44.5417 48.3354L47.11 45.2459C47.9348 44.2537 49.5219 44.8905 49.4753 46.2104L44.5417 48.3354Z" fill="#73B8B2"/>
<path d="M37.6255 35.3435C37.7817 35.6304 38.2429 36.0149 38.7881 36.0011C39.2391 35.9901 39.6567 35.7103 39.8828 35.3313C40.9584 33.532 43.2087 33.9375 43.8805 35.5754C44.0616 36.0167 44.5522 36.2221 44.9765 36.0334C45.4006 35.8448 45.5976 35.3339 45.4165 34.8925C44.276 32.1129 40.6396 31.4832 38.7544 33.9818C36.4689 30.9333 31.7722 32.6651 31.7756 36.4957C31.7796 40.5231 35.1292 43.6033 38.2627 45.143C38.5852 45.3016 38.9524 45.2935 39.2586 45.142C41.5115 44.0292 43.9066 42.0546 45.0151 39.67C45.2161 39.2378 45.0423 38.7178 44.6272 38.5087C44.2119 38.2993 43.7127 38.4803 43.5118 38.9126C42.6086 40.8554 40.6083 42.4907 38.7581 43.4612C36.1518 42.1194 33.449 39.6226 33.4459 36.494C33.4439 34.1347 36.4849 33.2543 37.6255 35.3435Z" fill="#73B8B2"/>
</g>
<defs>
<clipPath id="clip0_642:4280">
<rect width="57" height="59.3425" fill="white" transform="translate(10 8.32886)"/>
</clipPath>
</defs>
</svg>
