<svg width="24" height="24" viewBox="0 0 22 22" fill="none" xmlns="http://www.w3.org/2000/svg">
<path fill-rule="evenodd" clip-rule="evenodd" d="M22 11C22 17.0748 17.0748 22 11 22C4.92525 22 0 17.0748 0 11C0 4.92525 4.92525 0 11 0C17.0748 0 22 4.92525 22 11ZM18.0473 10.1365C18.2252 10.3904 18.326 10.6902 18.337 11C18.3418 11.3031 18.2607 11.6014 18.103 11.8603C17.9453 12.1192 17.7175 12.3282 17.446 12.463C17.4588 12.6243 17.4588 12.7857 17.446 12.947C17.446 15.411 14.575 17.413 11.033 17.413C7.491 17.413 4.62 15.411 4.62 12.947C4.60761 12.7859 4.60761 12.6241 4.62 12.463C4.41024 12.3648 4.22423 12.2224 4.07476 12.0454C3.92528 11.8685 3.81589 11.6614 3.75409 11.4381C3.6923 11.2149 3.67957 10.981 3.71678 10.7524C3.75399 10.5238 3.84026 10.306 3.96966 10.1139C4.09905 9.92181 4.26851 9.76002 4.46638 9.63965C4.66424 9.51928 4.88583 9.44318 5.1159 9.41658C5.34597 9.38999 5.57908 9.41353 5.79919 9.48558C6.0193 9.55764 6.22119 9.6765 6.391 9.834C7.6585 8.97438 9.14967 8.50409 10.681 8.481L11.495 4.664C11.5041 4.61981 11.522 4.57788 11.5474 4.54063C11.5729 4.50338 11.6055 4.47155 11.6434 4.44699C11.6812 4.42244 11.7236 4.40564 11.768 4.39757C11.8124 4.38951 11.8579 4.39033 11.902 4.4L14.597 4.939C14.7286 4.71288 14.9365 4.54108 15.1834 4.45443C15.4302 4.36777 15.6999 4.37195 15.944 4.46621C16.188 4.56046 16.3905 4.73862 16.5151 4.96871C16.6396 5.19879 16.6781 5.46574 16.6235 5.72162C16.569 5.97751 16.425 6.20558 16.2175 6.36489C16.01 6.52421 15.7525 6.60433 15.4912 6.59089C15.2299 6.57745 14.9819 6.47131 14.7919 6.29154C14.6018 6.11177 14.482 5.87013 14.454 5.61L12.1 5.115L11.385 8.547C12.8977 8.57945 14.3687 9.04939 15.62 9.9C15.787 9.73939 15.9869 9.61686 16.2058 9.54082C16.4247 9.46478 16.6575 9.43705 16.8881 9.45952C17.1187 9.48199 17.3418 9.55414 17.5419 9.671C17.742 9.78786 17.9144 9.94667 18.0473 10.1365ZM7.52217 11.4886C7.44187 11.6087 7.38603 11.7435 7.35783 11.8852C7.32962 12.0269 7.3296 12.1728 7.35778 12.3145C7.41468 12.6008 7.58295 12.8527 7.82558 13.0148C8.06821 13.177 8.36532 13.2361 8.65155 13.1792C8.79327 13.151 8.92806 13.0952 9.04822 13.015C9.16837 12.9347 9.27154 12.8316 9.35183 12.7114C9.51399 12.4688 9.57312 12.1717 9.51622 11.8855C9.45932 11.5992 9.29105 11.3473 9.04842 11.1852C8.80579 11.023 8.50868 10.9639 8.22245 11.0208C7.93622 11.0777 7.68432 11.246 7.52217 11.4886ZM11.011 15.972C11.9873 16.0123 12.9479 15.7575 13.728 15.169C13.7863 15.1121 13.8197 15.0344 13.8207 14.9529C13.8218 14.8714 13.7904 14.7928 13.7335 14.7345C13.7053 14.7056 13.6717 14.6826 13.6347 14.6666C13.5976 14.6507 13.5577 14.6423 13.5174 14.6418C13.4359 14.6407 13.3573 14.6721 13.299 14.729C12.6314 15.2079 11.8204 15.4446 11 15.4C10.1806 15.4366 9.37335 15.1921 8.712 14.707C8.65501 14.6602 8.58265 14.6363 8.50901 14.6399C8.43537 14.6436 8.3657 14.6744 8.31357 14.7266C8.26143 14.7787 8.23055 14.8484 8.22694 14.922C8.22332 14.9957 8.24722 15.068 8.294 15.125C9.07443 15.7131 10.0346 16.0125 11.011 15.972ZM12.9186 13.0588C13.1001 13.1798 13.3018 13.288 13.519 13.288C13.6682 13.2897 13.8162 13.2611 13.9539 13.2038C14.0917 13.1465 14.2163 13.0617 14.3203 12.9547C14.4242 12.8477 14.5053 12.7206 14.5586 12.5812C14.6118 12.4418 14.6361 12.2931 14.63 12.144C14.6299 11.954 14.5806 11.7672 14.4869 11.6019C14.3932 11.4367 14.2583 11.2984 14.0953 11.2008C13.9323 11.1031 13.7468 11.0494 13.5569 11.0447C13.3669 11.0401 13.179 11.0847 13.0114 11.1743C12.8439 11.2639 12.7024 11.3953 12.6007 11.5559C12.499 11.7164 12.4407 11.9005 12.4313 12.0903C12.422 12.2801 12.4619 12.469 12.5473 12.6388C12.6327 12.8085 12.7606 12.9532 12.9186 13.0588Z" fill="#737373"/>
</svg>
